<svg width="24" height="24" viewBox="0 0 24 24" fill="none" xmlns="http://www.w3.org/2000/svg">
<path d="M3.34279 15.65L1.83179 14.189C1.61845 13.989 1.51512 13.7457 1.52179 13.459C1.52845 13.1737 1.63812 12.9247 1.85079 12.712C3.15079 11.3853 4.70379 10.3517 6.50979 9.611C8.31579 8.87033 10.1451 8.5 11.9978 8.5C13.8505 8.5 15.6801 8.87 17.4868 9.61C19.2921 10.3507 20.8468 11.3847 22.1508 12.712C22.3641 12.9247 22.4738 13.174 22.4798 13.46C22.4865 13.7453 22.3831 13.988 22.1698 14.188L20.6588 15.65C20.4368 15.8593 20.1955 15.9787 19.9348 16.008C19.6735 16.0373 19.4301 15.9707 19.2048 15.808L17.0738 14.185C16.8765 14.0337 16.7318 13.8717 16.6398 13.699C16.5478 13.5263 16.5015 13.332 16.5008 13.116V10.323C15.6875 10.0337 14.9285 9.824 14.2238 9.694C13.5191 9.56467 12.7781 9.5 12.0008 9.5C11.2235 9.5 10.4825 9.56467 9.77779 9.694C9.07312 9.82333 8.31412 10.033 7.50079 10.323V13.116C7.50079 13.3313 7.45445 13.5257 7.36179 13.699C7.26912 13.8723 7.12445 14.0343 6.92779 14.185L4.79779 15.808C4.57112 15.9707 4.32779 16.0373 4.06779 16.008C3.80645 15.9787 3.56479 15.8593 3.34279 15.65ZM6.50079 10.68C5.78679 11.0073 5.09579 11.4007 4.42779 11.86C3.75979 12.32 3.18412 12.782 2.70079 13.246C2.63679 13.31 2.60479 13.3743 2.60479 13.439C2.60479 13.503 2.63679 13.567 2.70079 13.631L3.89279 14.804C3.95745 14.868 4.03745 14.9097 4.13279 14.929C4.22945 14.9483 4.31612 14.926 4.39279 14.862L6.26979 13.442C6.33445 13.3913 6.38912 13.3273 6.43379 13.25C6.47845 13.1727 6.50079 13.1023 6.50079 13.039V10.68ZM17.5008 10.692V13.039C17.5008 13.103 17.5231 13.1733 17.5678 13.25C17.6125 13.3267 17.6671 13.3907 17.7318 13.442L19.6088 14.862C19.6855 14.926 19.7721 14.9483 19.8688 14.929C19.9641 14.9097 20.0441 14.868 20.1088 14.804L21.3008 13.642C21.3648 13.578 21.3968 13.514 21.3968 13.45C21.3968 13.386 21.3648 13.322 21.3008 13.258C20.8175 12.786 20.2418 12.3213 19.5738 11.864C18.9058 11.406 18.2148 11.0153 17.5008 10.692Z" fill="white"/>
</svg>
