<svg width="24" height="24" viewBox="0 0 24 24" fill="none" xmlns="http://www.w3.org/2000/svg">
<path d="M20.25 18.75L4.5 3" stroke="#D50F0F" stroke-miterlimit="10" stroke-linecap="round"/>
<path d="M18.75 11.2497V9.77075C18.75 9.36715 18.4397 9.02075 18.0361 9.00059C17.9347 8.9957 17.8333 9.01146 17.7382 9.0469C17.6431 9.08233 17.5561 9.13672 17.4826 9.20676C17.4091 9.27679 17.3506 9.36102 17.3106 9.45434C17.2706 9.54766 17.25 9.64813 17.25 9.74965V11.2497C17.2502 11.634 17.2081 12.0173 17.1244 12.3925C17.121 12.4078 17.1215 12.4237 17.1258 12.4388C17.1301 12.4538 17.1382 12.4676 17.1492 12.4787L18.2081 13.5376C18.2192 13.5487 18.233 13.5569 18.2481 13.5613C18.2631 13.5657 18.2791 13.5663 18.2945 13.5629C18.3098 13.5596 18.3241 13.5524 18.3359 13.5421C18.3478 13.5318 18.3569 13.5186 18.3623 13.5039C18.6195 12.7802 18.7506 12.0177 18.75 11.2497ZM12 16.4997C10.609 16.4952 9.27621 15.9407 8.2926 14.957C7.309 13.9734 6.75445 12.6407 6.75 11.2497V9.77075C6.75 9.36715 6.43969 9.02075 6.03609 9.00059C5.93469 8.9957 5.83334 9.01146 5.7382 9.0469C5.64307 9.08233 5.55611 9.13672 5.48261 9.20676C5.40911 9.27679 5.3506 9.36102 5.31062 9.45434C5.27063 9.54766 5.25001 9.64813 5.25 9.74965V11.2497C5.25 14.7184 7.87969 17.5834 11.25 17.9579V20.2497H9.02109C8.6175 20.2497 8.27109 20.56 8.25094 20.9636C8.24605 21.065 8.26181 21.1663 8.29724 21.2614C8.33268 21.3566 8.38707 21.4435 8.4571 21.517C8.52714 21.5905 8.61137 21.6491 8.70469 21.689C8.79801 21.729 8.89848 21.7496 9 21.7497H14.9789C15.3825 21.7497 15.7289 21.4393 15.7491 21.0357C15.7539 20.9343 15.7382 20.833 15.7028 20.7379C15.6673 20.6427 15.6129 20.5558 15.5429 20.4823C15.4729 20.4088 15.3886 20.3503 15.2953 20.3103C15.202 20.2703 15.1015 20.2497 15 20.2497H12.75V17.9579C13.6037 17.8629 14.4312 17.6048 15.1875 17.1976C15.2132 17.1837 15.2352 17.1639 15.2519 17.1399C15.2685 17.116 15.2794 17.0884 15.2835 17.0595C15.2877 17.0306 15.285 17.0011 15.2757 16.9734C15.2665 16.9457 15.2509 16.9206 15.2302 16.9L14.3677 16.0379C14.3471 16.0175 14.3207 16.0039 14.292 15.999C14.2634 15.9941 14.234 15.9982 14.2078 16.0107C13.5166 16.3336 12.7629 16.5005 12 16.4997ZM12.0534 2.24965C11.4167 2.23797 10.7875 2.38934 10.2257 2.68938C9.66398 2.98942 9.1883 3.42815 8.84391 3.96387C8.82068 3.99994 8.81052 4.04288 8.81512 4.08553C8.81973 4.12819 8.83882 4.16797 8.86922 4.19825L15.5902 10.9215C15.6033 10.9346 15.62 10.9435 15.6382 10.947C15.6564 10.9506 15.6752 10.9487 15.6923 10.9416C15.7094 10.9345 15.724 10.9224 15.7343 10.907C15.7445 10.8916 15.75 10.8735 15.75 10.855V6.04231C15.75 3.98403 14.1094 2.27778 12.0534 2.24965Z" fill="#D50F0F"/>
<path d="M8.40984 10.078C8.39671 10.065 8.37999 10.0561 8.36182 10.0525C8.34364 10.049 8.32481 10.0509 8.30771 10.058C8.29061 10.0651 8.276 10.0771 8.26573 10.0926C8.25546 10.108 8.24999 10.1261 8.25 10.1446V11.203C8.25073 12.2022 8.64575 13.1607 9.34922 13.8702C9.81057 14.3499 10.3933 14.6956 11.0355 14.8705C11.6776 15.0454 12.3552 15.043 12.9961 14.8635C13.0119 14.8591 13.0262 14.8505 13.0377 14.8388C13.0492 14.827 13.0574 14.8125 13.0614 14.7966C13.0655 14.7807 13.0654 14.764 13.061 14.7482C13.0566 14.7324 13.0481 14.718 13.0364 14.7065L8.40984 10.078Z" fill="#D50F0F"/>
</svg>
