<svg width="24" height="24" viewBox="0 0 24 24" fill="none" xmlns="http://www.w3.org/2000/svg">
<path d="M11.2705 10.6159H13.2705V11.4389C13.2705 11.5296 13.3105 11.5926 13.3905 11.6279C13.4712 11.6632 13.5469 11.6456 13.6175 11.5749L14.7845 10.4079C14.8719 10.3206 14.9155 10.2232 14.9155 10.1159C14.9155 10.0079 14.8722 9.91025 14.7855 9.82292L13.6175 8.65592C13.5469 8.58525 13.4712 8.56758 13.3905 8.60292C13.3105 8.63825 13.2705 8.70158 13.2705 8.79292V9.61592H11.2705C10.5772 9.61592 9.9872 9.85925 9.50054 10.3459C9.01387 10.8326 8.77054 11.4226 8.77054 12.1159V13.6159C8.77054 13.7579 8.8182 13.8766 8.91354 13.9719C9.00887 14.0679 9.12754 14.1159 9.26954 14.1159C9.41154 14.1159 9.53054 14.0679 9.62654 13.9719C9.72254 13.8759 9.7702 13.7572 9.76954 13.6159V12.1159C9.76954 11.7039 9.91654 11.3506 10.2105 11.0559C10.5052 10.7626 10.8585 10.6159 11.2705 10.6159ZM2.27054 19.4619C2.12787 19.4619 2.00854 19.4139 1.91254 19.3179C1.81654 19.2219 1.76887 19.1032 1.76954 18.9619C1.7702 18.8206 1.81787 18.7016 1.91254 18.6049C2.0072 18.5082 2.1262 18.4602 2.26954 18.4609H21.7315C21.8735 18.4609 21.9922 18.5089 22.0875 18.6049C22.1829 18.7009 22.2309 18.8196 22.2315 18.9609C22.2322 19.1023 22.1842 19.2213 22.0875 19.3179C21.9909 19.4146 21.8722 19.4626 21.7315 19.4619H2.27054ZM4.61554 17.4619C4.15554 17.4619 3.7712 17.3076 3.46254 16.9989C3.15387 16.6903 2.99987 16.3059 3.00054 15.8459V6.07692C3.00054 5.61692 3.15487 5.23258 3.46354 4.92392C3.7722 4.61525 4.1562 4.46125 4.61554 4.46192H19.3855C19.8455 4.46192 20.2295 4.61592 20.5375 4.92392C20.8455 5.23192 20.9999 5.61625 21.0005 6.07692V15.8469C21.0005 16.3069 20.8462 16.6909 20.5375 16.9989C20.2289 17.3069 19.8445 17.4612 19.3845 17.4619H4.61554ZM4.61554 16.4619H19.3855C19.5389 16.4619 19.6799 16.3976 19.8085 16.2689C19.9372 16.1402 20.0012 15.9992 20.0005 15.8459V6.07692C20.0005 5.92358 19.9365 5.78258 19.8085 5.65392C19.6799 5.52525 19.5385 5.46092 19.3845 5.46092H4.61654C4.46254 5.46092 4.3212 5.52525 4.19254 5.65392C4.06454 5.78192 4.00054 5.92292 4.00054 6.07692V15.8469C4.00054 16.0002 4.06454 16.1409 4.19254 16.2689C4.32054 16.3969 4.46154 16.4612 4.61554 16.4619Z" fill="white"/>
</svg>
