<svg width="24" height="24" viewBox="0 0 24 24" fill="none" xmlns="http://www.w3.org/2000/svg">
<path d="M3.27918 2.22015C3.21051 2.14647 3.12771 2.08736 3.03572 2.04637C2.94372 2.00538 2.8444 1.98334 2.7437 1.98156C2.643 1.97979 2.54297 1.99831 2.44958 2.03603C2.35619 2.07375 2.27136 2.1299 2.20014 2.20112C2.12892 2.27233 2.07278 2.35717 2.03505 2.45056C1.99733 2.54394 1.97881 2.64397 1.98059 2.74468C1.98236 2.84538 2.0044 2.94469 2.0454 3.03669C2.08639 3.12869 2.14549 3.21149 2.21918 3.28015L4.13418 5.19615C3.50808 5.42483 2.96743 5.84049 2.58553 6.38679C2.20362 6.93309 1.99892 7.5836 1.99918 8.25015V15.7502C1.99918 16.6121 2.34159 17.4388 2.95108 18.0483C3.56057 18.6577 4.38722 19.0002 5.24918 19.0002H11.7492C12.5598 19.0003 13.3413 18.6975 13.9401 18.1512C14.539 17.6048 14.9121 16.8544 14.9862 16.0472L20.7182 21.7802C20.8596 21.9168 21.049 21.9925 21.2456 21.9909C21.4423 21.9893 21.6304 21.9105 21.7696 21.7715C21.9087 21.6325 21.9876 21.4445 21.9894 21.2478C21.9912 21.0512 21.9157 20.8617 21.7792 20.7202L3.27918 2.22015ZM15.9992 12.8182L21.0072 17.8262C21.5772 17.5522 22.0012 16.9782 22.0012 16.2482V7.75315C22.0012 6.34315 20.4172 5.51115 19.2562 6.31315L15.9992 8.56315V12.8182ZM8.18118 5.00015L14.9992 11.8182V8.25015C14.9992 7.82336 14.9151 7.40074 14.7518 7.00643C14.5885 6.61212 14.3491 6.25385 14.0473 5.95206C13.7455 5.65027 13.3872 5.41087 12.9929 5.24755C12.5986 5.08422 12.176 5.00015 11.7492 5.00015H8.18118Z" fill="#D50F0F"/>
</svg>
